# xmcd
#
# Track frame offsets: 
#        150
#        21077
#        43335
#        79572
#        122835
#        150862
#        174490
#        211345
#        252332
#        266085
#
# Disc length: 4099 seconds
#
# Revision: 0
# Processed by: cddbd v1.5.2PL0 Copyright (c) Steve Scherf et al.
# Submitted via: ExactAudioCopy v0.99pb3
#
DISCID=7e10010a
DTITLE=Mose Se Fan Fan - Belle Epoque
DYEAR=1994
DGENRE=Rumba
TTITLE0=Julie la Petite
TTITLE1=Serge
TTITLE2=Ciska
TTITLE3=Molema
TTITLE4=Venus
TTITLE5=Chama Cha Mapindizi
TTITLE6=Pele Odidja
TTITLE7=Amba
TTITLE8=Jolie Africa
TTITLE9=Suki Pembe Somo Somo
EXTD=
EXTT0=
EXTT1=
EXTT2=
EXTT3=
EXTT4=
EXTT5=
EXTT6=
EXTT7=
EXTT8=
EXTT9=
PLAYORDER=
